<?xml version="1.0" encoding="iso-8859-1"?>
<!-- Generator: Adobe Illustrator 14.0.0, SVG Export Plug-In . SVG Version: 6.00 Build 43363)  -->
<!DOCTYPE svg PUBLIC "-//W3C//DTD SVG 1.1//EN" "http://www.w3.org/Graphics/SVG/1.1/DTD/svg11.dtd">
<svg version="1.1" id="Layer_1" xmlns="http://www.w3.org/2000/svg" xmlns:xlink="http://www.w3.org/1999/xlink" x="0px" y="0px"
	 width="512px" height="512px" viewBox="0 0 512 512" style="enable-background:new 0 0 512 512;" xml:space="preserve">
<g>
	<path style="fill:none;stroke:#000000;" d="M208.505,140.814c1.453-1.794,0.741-5.66-0.8-6.8c-1.123,1.593-1.513,4.488-0.8,6.8
		c-6.016-1.354-2.091-10.522,1.2-11.999C211.554,130.304,214.73,140.022,208.505,140.814"/>
	<path style="fill:none;stroke:#000000;" d="M179.709,150.813c0.825-1.397,1.099-5.188-0.2-6.999
		c-1.669,1.181-2.154,5.066-0.799,6.999c-5.607-1.123-3.579-11.382,1-11.999C182.153,141.5,185.944,149.573,179.709,150.813"/>
	<path style="fill:none;stroke:#000000;" d="M237.502,150.813c0.535-1.686,0.619-5.583-0.8-6.999
		c-1.186,1.171-1.657,4.652-0.8,6.599c-5.436-0.706-2.457-9.587,0.4-11.599C239.728,140.601,243.633,148.513,237.502,150.813"/>
	<path style="fill:none;stroke:#000000;" d="M210.505,143.013c0,5.399,0,10.799,0,16.198c-1.667,0-3.333,0-5,0
		c0-5.399,0-10.799,0-16.198C207.172,143.013,208.839,143.013,210.505,143.013"/>
	<path style="fill:none;stroke:#000000;" d="M181.508,152.812c0,3.533,0,7.066,0,10.6c-1.6,0-3.2,0-4.799,0c0-3.533,0-7.065,0-10.6
		C178.309,152.812,179.909,152.812,181.508,152.812"/>
	<path style="fill:none;stroke:#000000;" d="M238.701,152.812c0,3.533,0,7.066,0,10.6c-1.4,0-2.8,0-4.199,0c0-3.533,0-7.065,0-10.6
		C235.902,152.812,237.301,152.812,238.701,152.812"/>
	<path style="fill:none;stroke:#000000;" d="M204.106,160.811c2.001-0.466,4.865-0.066,7.199-0.199
		c-1.625,10.014,3.614,17.54,2,28.195c-3.533,0-7.065,0-10.599,0C201.16,178.541,206.333,170.464,204.106,160.811"/>
	<path style="fill:none;stroke:#000000;" d="M182.308,164.811c-1.306,9.256,2.983,14.603,2.2,23.997c-3.6,0-7.199,0-10.798,0
		c-0.786-9.403,3.488-14.75,2.2-23.997C178.042,164.811,180.175,164.811,182.308,164.811"/>
	<path style="fill:none;stroke:#000000;" d="M233.702,164.811c2.133,0,4.266,0,6.399,0c-1.293,9.243,2.977,14.608,2.2,23.997
		c-3.6,0-7.199,0-10.799,0C230.77,179.464,235.007,174.065,233.702,164.811"/>
	<path style="fill:none;stroke:#000000;" d="M281.096,207.606c2.758-0.643,3.34-3.461,5.4-4.801c1.33,0.602,1.9,1.965,1.801,4
		c1.211-0.454,1.463-1.87,1.799-3.198c3.768,2.23,6.854,5.143,12.598,5.398c0.191,0.66-1.088,1.747-1.801,2
		c-2.9,1.028-7.625-0.878-8.998-3c-0.379,1.822-0.896,3.502-1.4,5.2c-2.6-0.798-4.195-2.602-4.998-5.2
		c-1.832,1.234-1.26,4.874-1.998,7.199c-1.551-0.467-3.018-2.703-4.4-4c-1.268,2.132-2.352,4.447-2.801,7.398
		c-0.924,0.144-1.676-1.486-2.799-1.8c-2.219,2.047-3.979,4.554-3.801,8.999c-1.281-0.484-2.648-1.77-4.6-1.8
		c-3.334-0.053-5.34,3.358-8.908,2.681c-4.032-0.766-4.603-4.945-3.489-8.28c3.032,1.313,8.591,4.359,12.599,2.199
		c2.275-1.227,3.418-4.473,2.6-7.198c-1.428-4.749-8.355-7.06-14.598-4.999c-1.022-4.32-7.937-8.67-2.799-12.6
		c3.294-1.021,6.325-1.527,10.397-2c5.205-0.603,9.65-4.952,14.6-1.6c4.646-3.236,13.699-2.606,12.799,4.6
		c-0.164,1.314-0.85,1.912-1.4,3.2C283.678,201.254,282.678,204.721,281.096,207.606 M276.697,193.807
		c-0.049,4.046,2.133,5.866,4.398,7.6c0.943-2.697,4.84-3.981,3.398-7.799C281.955,193.733,278.906,193.351,276.697,193.807
		 M264.098,198.007c-0.865,0.733-0.383,2.815-0.799,4c-0.658,0.94-2.025,1.173-2,2.799c3.324-2.104,11.451,1.979,11.799-2
		c-4.01-1.989-6.578-5.421-9.799-8.198C262.576,195.808,262.977,197.552,264.098,198.007"/>
	<path style="fill:none;stroke:#000000;" d="M171.71,191.008c4.933,0,9.866,0,14.798,0c-0.051,1.415-1.096,1.837-1.8,2.601
		C180.18,192.936,172.438,195.478,171.71,191.008"/>
	<path style="fill:none;stroke:#000000;" d="M199.906,191.008c5.399,0,10.798,0,16.198,0c-0.345,2.879-4.1,2.601-8.399,2.601
		C203.444,193.607,200.373,194.112,199.906,191.008"/>
	<path style="fill:none;stroke:#000000;" d="M229.503,191.008c4.933,0,9.865,0,14.798,0c-0.705,4.495-8.487,1.912-12.998,2.601
		C230.598,192.845,229.554,192.423,229.503,191.008"/>
	<path style="fill:none;stroke:#000000;" d="M180.908,195.807c0.083,1.317-0.261,3.062,0.4,3.8
		c7.406,0.926,16.526,0.139,24.597,0.399c0.464-1.003,0.069-2.864,0.2-4.2c1.2,0,2.4,0,3.6,0c0,1.4,0,2.801,0,4.2
		c8.135-0.131,16.795,0.263,24.597-0.2c0.987-0.612,0.82-2.379,0.8-4c1.2,0,2.4,0,3.6,0c1.111,5.984-3.346,7.797-8.497,7.959
		c-7.368,0.233-14.816-0.16-22.193-0.16c-6.963,0-13.92,0.165-20.879,0.204c-5.063,0.028-10.918-0.949-9.824-7.402
		c-0.017-0.284-0.033-0.566,0.2-0.601C178.642,195.807,179.776,195.807,180.908,195.807"/>
	<path style="fill:none;stroke:#000000;" d="M278.896,195.807c1.4,0,2.801,0,4.201,0c-0.15,1.585-1.215,2.253-2.402,2.801
		C279.967,197.804,278.889,197.348,278.896,195.807"/>
	<path style="fill:none;stroke:#000000;" d="M300.494,202.206c-3.756,4.075-9.295-0.28-13.199-1.4c1.324-1.645,3.5-2.926,6.6-2.199
		C295.711,200.19,297.547,201.755,300.494,202.206"/>
	<path style="fill:none;stroke:#000000;" d="M265.898,200.206c1.34,0.726,2.205,1.927,3.799,2.4c-1.76,0.809-2.529-0.232-4.199-0.4
		C265.416,201.324,265.553,200.661,265.898,200.206"/>
	<path style="fill:none;stroke:#000000;" d="M200.106,209.006c-0.552-1.064-0.372-2.454,0-3.6c2.751-1.854,8.079,0.021,7.599,3
		C207.286,211.007,201.897,210.453,200.106,209.006"/>
	<path style="fill:none;stroke:#000000;" d="M247.7,242.801c-0.42,1.646-1.238,2.896-2.6,3.601c1.977,1.855,6.766,1.706,8.999,0.199
		c0.061,2.008,0.771,3.363,1.4,4.801c-8.707,1.425-16.293,3.97-23.997,6.398c1.168-2.123,3.426-4.286,2.4-7.398
		c-1.814,0.531-3.274,3.114-6.199,3.198c-0.397-0.797,1.037-1.752,1.6-2.799c0.62-1.152,1.032-2.454,1-4
		c-1.738,0.478-3.383,2.738-6.399,2.601c1.253-2.276,4.053-6.396,1.399-8.999c-1.252,1.681-1.865,4-4.199,4.6
		c1.94-5.429-2.431-7.41-2.8-11.799c2.533,0,5.066,0,7.599,0c0.366-2.167,0.469-4.597,0.8-6.799
		c-5.233-1.086-11.763,0.766-13.198-4.199c-0.801-2.771,0.186-6.636-0.2-10.599c-1.249-0.751-2.903-1.097-4.599-1.4
		c0.536-0.878,0.415-3.249-0.2-4.6c3.973-0.909,5.565,2.055,7.599,4.6c2.337,2.924,4.352,6.092,7.599,7.999
		c3.113,1.828,6.764,3.295,8.399,6.799c1.608,3.446,1.477,7.299,3.6,9.999C238.648,238.749,243.439,241.254,247.7,242.801"/>
	<path style="fill:none;stroke:#000000;" d="M201.506,211.405c2.396-0.594,6.324,0.655,6.199,3.199
		c-0.178,3.631-8.156,3.151-8.599-0.399C198.845,212.113,200,211.778,201.506,211.405"/>
	<path style="fill:none;stroke:#000000;" d="M292.895,211.205c0.701-0.034,0.629,0.704,1,1c7.869,2.265,7.871,12.394,13.197,17.198
		c-2.746,0.954-6.395,0.047-8.396-1c0.682-4.788-0.541-8.936-3.602-10.6c1.055,3.775,2.635,8.956,0.201,12.398
		c-2.334-0.933-3.688-2.845-4.398-5.399c-1.602,4.093,3.936,7.044,0.799,10.999c-1.672-2.794-4.369-4.563-7.799-5.599
		c1.09,2.697,2.141,7.397,0.6,10.397c-2.436-1.496-4.771-3.095-8.398-3.398c0.77,2.815,1.135,6.518,0,9.199
		c-1.65-1.148-3.428-2.17-6.398-2c0.727-3.485,5.469-6.037,2.801-10.399c2.275,0.016,5.416-0.133,8.197-0.2
		c-0.055-2.238-1.309-5.537-0.6-8.599c2.564,0.395,3.756,3.138,6.998,2.199c-0.254-1.854,0.451-4.303,0.801-6.199
		c1.885,0.367,3.555,2.449,5.6,1.399c-2.119-1.812-4.188-3.676-6.199-5.6c-0.688,2.977-2.535,4.796-2.801,8.199
		c-1.064-0.114-1.371-0.893-2.199-1.601c-0.33-0.283-1.855-1.808-1.998-1.8c-1.307,0.081-3.508,6.683-3,9.799
		c-2.877,0.597-6.074-0.182-8.6-0.6c2.543,4.16-0.908,9.626-1.199,14.598c-2.518-3.16-0.529-9.15-1.398-13.397
		c-1.996,2.404-5.449,5.084-9,6.599c-0.92-6.586,0.947-12.117,7.398-11.999c-1.426,1.189-3.182,3.444-2,5.999
		c1.688-2.112,3.531-4.067,6-5.398c0.895,0.838,2.775,0.689,3.801,1.399c-0.855-2.673-1.129-7.772,1.197-8.999
		c1.254,0.946,1.658,2.741,1.801,4.799c1.195-3.135,2.129-6.534,4-8.999c1.404,0.86,2.416,2.118,2.799,3.999
		c1.762-1.971,2.76-4.707,3-8.198c1.467,1.934,3.258,3.541,5.398,4.799C291.742,214.986,292.633,213.409,292.895,211.205"/>
	<path style="fill:none;stroke:#000000;" d="M207.905,212.005c1.392,0.141,2.491,0.575,4,0.6c0,3.533,0,7.066,0,10.6
		c-1.133,0-2.267,0-3.4,0c1.981-2.056,0.098-4.462-1.4-5.799C209.581,217.012,209.478,213.334,207.905,212.005"/>
	<path style="fill:none;stroke:#000000;" d="M264.697,217.604c-1.375-1.355-4.334-1.131-5.998-2.199
		c-6.943-0.211-10.352,6.968-17.798,5.799c-3.199-0.502-5.197-3.183-4.399-7.399c0.575-0.46,1.483,1.19,2.2,1.601
		c7.648,4.371,13.494-5.254,21.997-2.4C262.486,213.606,263.963,214.987,264.697,217.604"/>
	<path style="fill:none;stroke:#000000;" d="M202.906,217.804c2.051-0.207,4.866,0.751,4.799,3.199
		c-0.104,3.867-7.522,2.95-7.999-0.2C199.398,218.769,200.457,218.051,202.906,217.804"/>
	<path style="fill:none;stroke:#000000;" d="M214.105,228.203c3,0,5.999,0,8.999,0c0,1.2,0,2.399,0,3.6c-10.532,0-21.064,0-31.596,0
		c0-1.2,0-2.399,0-3.6c2.733,0,5.466,0,8.199,0c0.423-1.088,0.575-3.102,2.6-3.601c2.379-0.586,8.473-0.485,9.999,0.2
		C213.634,225.401,213.765,227.086,214.105,228.203"/>
	<path style="fill:none;stroke:#000000;" d="M255.299,231.803c-0.045,2.578,0.637,6.591-0.4,8.999
		c4.313,0.313,7.921-1.812,9.599-4.799c0.51,2.928-0.438,5.281,0.199,7.799c0.52,2.05,2.539,3.799,2.199,6.199
		c-2.604-1.661-4.588-3.945-6.199-6.599c-0.789,2.608-1.029,5.768-2.799,7.398c-1.313-2.154-0.623-6.309-2.799-7.599
		c-1.19,1.676-2.506,3.227-5.799,2.8c0.758-2.242,2.21-3.79,2-6.999c-4.355,2.368-8.799-2.223-6.399-6.599
		C246.712,235.792,253.87,234.876,255.299,231.803"/>
	<path style="fill:none;stroke:#000000;" d="M301.494,243.201c-3.463-0.205-5.352-1.981-7.602-3.4
		c0.418,3.522,5.654,4.78,4.201,10.199c-2.572-1.562-4.111-4.154-7.602-4.8c0.852,1.423,0.279,9.006-1.6,9.199
		c-0.75,0.076-1.746-2.187-2.199-2.801c-1.111-1.506-2.6-2.797-4.199-3.398c-0.463,3.669-2.139,6.127-3.398,9
		c-1.307-1.961-3.285-3.248-4.998-4.8c-0.793,1.941-1.361,4.106-2.801,5.399c-1.025-1.641-2.293-3.041-3.6-4.398
		c1.656-1.167,2.66-4.483,1.398-6.801c3.957-0.024,6.176,1.692,8.398,3.4c1.063-2.575,2.105-6.108,1.4-9.799
		c2.645,0.824,4.48,2.452,6.199,4.2c1.842-2.119,2.783-6.382,1.6-9.8c2.396,0.803,3.811,2.589,4.799,4.8
		c1.018-2.649,1.598-5.735,4.199-6.8C298.238,235.523,298.791,240.437,301.494,243.201"/>
	<path style="fill:none;stroke:#000000;" d="M260.498,248c2.041,1.559,3.75,3.451,6.199,4.6c-2.006-0.062-4.262-1.603-7.398-1.199
		C259.951,250.519,260.443,249.478,260.498,248"/>
	<path style="fill:none;stroke:#000000;" d="M305.494,250.2c0.455,1.899,2.902,3.585,3,5.6c0.107,2.279-2.203,3.547-4.002,4.799
		C305.111,258.216,304.527,252.901,305.494,250.2"/>
	<path style="fill:none;stroke:#000000;" d="M255.899,344.987c-2.717,0.416-4.887,1.379-5.799,3.602
		c-1.851-4.1,1.897-5.934,2.6-8.799c-1.525,0.607-3.845,2.152-7,1.801c0.888-2.047,2.4-3.469,3.4-5.4c-1.867-0.465-4.66-0.129-6,0.6
		c0.33-3.604,4.667-4.93,7.199-7c-2.873,0.371-6.608,0.707-9.399,0c6.074-1.496,5.164-9.723,8.799-13.998
		c1.543-1.813,4.706-2.781,7.398-3.799c8.49-3.205,15.23-5.734,20.396-12.598c3.254,1.615,7.102,2.633,7,7.6
		c-1.67-0.934-2.664-2.535-5.199-2.602c1.061,4.664-3.113,12.602,0.801,16.799c-1.59,1.408-2.611,3.387-2.799,6.199
		c-3.227-0.107-5.229-1.439-7.4-2.602c1.088,2.912,3.119,4.881,6,6c-2.314,1.496-6.781,0.746-8.199-1
		c0.791,2.275,2.213,3.918,4.602,4.6c-1.816,2.193-3.529,3.389-3.801,5.799c-0.475,4.215,3.803,8.557,3.197,13.4
		c-0.25,2.018-1.639,4.002-0.799,6.398c-1.945-0.188-3.109-1.156-3.799-2.6c-1.34,2.076-0.738,6.328-0.201,8.799
		c-1.873-0.395-3.313-1.219-4.199-2.602c-0.984,0.906-0.588,3.359-0.199,4.602c-1.631-0.504-2.797-1.471-3.998-2.402
		c0.979,3.826,0.664,9.129-1.002,12c-6.867,0.463-14.114,0.549-16.597,5.4c-4.577-1.113-2.849-6.982,1-7.602
		c-3.338-0.805-5.361,1.439-6.799,3.201c-4.261-0.957-2.25-6.818,1-7.398c-2.387-1.08-5.22,0.748-5.199,3.396
		c-4.599-2.592-2.02-9.443,3.2-9.598c3.959-0.115,6.897,2.766,9.199,3.199c6.538,1.232,5.146-3.842,5.999-8.998
		c0.943-5.699,5.483-7.277,9.599-9.998c-1.621-1.082-3.977,0.188-5.399,0.598C253.274,347.296,254.76,346.315,255.899,344.987"/>
	<path style="fill:none;stroke:#000000;" d="M281.096,307.192c1.49,0.777,3.031,1.502,4,2.801c0.207,4.34-0.955,7.311-2.602,9.799
		C279.25,317.401,281.131,311.782,281.096,307.192"/>
	<path style="fill:none;stroke:#000000;" d="M203.506,255.599c-0.053-4.107-3.688-5.378-7.799-4.799
		c1.085-5.146,6.955-5.063,10.398-1.8c2.324,2.202,3.526,4.867,6,6.799c4.52,3.528,10.78,4.659,18.998,4.2
		c9.534-0.533,17.852-4.757,27.596-5.2c6.508-0.296,10.781,0.575,10.398,7.798c2.416-0.383,4.643-2.688,5.398-5.398
		c1.729,1.271,2.535,3.465,3.6,5.398c2.584-2.816,4.803-5.996,5.801-10.397c1.533,1.666,3.201,3.196,4,5.599
		c2.848-1.817,4.604-4.727,4.998-8.998c2.508,1.814,4.533,4.209,4.201,8.799c-0.146,1.975-0.906,4.781-1,7.199
		c-0.377,9.566,4.096,17.543,9.998,24.598c2.721,3.252,5.387,6.566,7,10.199c2.408,5.426,3.896,13.557,9.797,15.197
		c6.408,1.781,10.646-2.527,11.199-7.398c0.789-6.945-1.707-15.006-3.6-19.799c-2.654-6.723-6.58-11.508-5.801-20.598
		c0.439-5.076,3.373-8.889,6-12.798c3.625-5.399,10.301-17.499,2.801-23.397c-2.76-2.169-7.35-2.335-10.4,0.4
		c-1.943,3.316-0.396,8.844,3.801,8.999c-3.051,4.417-9.168,0.868-8.998-3.799c-2.715,6.081,3.41,7.02,6.199,10.798
		c1.842,2.5,2.535,7.917-0.801,9.799c0.35-5.281-2.537-7.328-5-9.799c1.271,2.449,3.873,8.142,1.002,11.398
		c0.477-2.85-1.596-3.834-3.4-5.799c-3.58-3.898-6.691-11.391-3.4-18.397c-2.139,2.419-3.891,6.152-3.199,10.398
		c0.695,4.267,6.48,9.56,6.199,14.798c-0.139,2.586-1.697,5.412-4.801,5.998c4.414-9.641-6.543-14.504-5.998-24.596
		c0.537-9.938,10.738-17.696,21.996-16.798c7.369,0.588,13.584,5.633,13.6,13.798c0.02,10.942-7.883,16.493-9.797,25.598
		c1.758-2.041,5.408-3.922,6.797-7c1.795,4.816-1.77,8.871-4.197,11.398c1.682-0.65,3.699-0.967,4.799-2.199
		c0.17,4.701-4.238,6.561-6,10c1.705,0.168,3.957-1.906,4.801-2.602c0.498,5.438-3.928,7-2.801,12.398
		c0.791-0.348,2.195-2.867,3.799-2.4c0.359,1.063-0.557,1.918-0.799,2.799c-1.701,6.168,0.957,14.814,0.398,21.799
		c-0.527,6.625-4.908,12.531-12.598,11.998c-3.336-0.23-8.18-2.307-10.799-4.398c-0.93-0.744-2.969-2.688-3.201-3.998
		c-0.473-2.682,1.678-6.039,0.201-9c-0.525,3.662-3.529,7.293-3.6,11.396c-0.059,3.389,1.66,5.914,2.6,9
		c-2.83,0.85-4.965-0.6-6.197-2c-0.771,13.813,23.139,7.984,17.598,22.797c0.967,0.484,2.227,0.631,3.398,0.4
		c-0.545,2.188-2.598,2.867-4,4.199c0.762,1.973,2.816,2.65,5.6,2.6c-0.713,2.145-4.932,2.492-7.398,1.602
		c2.094,2.174,4.602,3.932,5.199,7.6c-1.645-0.688-2.996-1.67-5.4-1.6c2.521,1.678,4.617,3.781,5.4,7.197
		c-0.885-0.715-2.232-0.967-3.398-1.4c0.77,3.199,1.078,7.576,0.6,11.398c-3.924,3.494-9.66,6.182-16.998,5.6
		c-0.555-2.631,0.086-5.41,1.801-6.398c-3.656-1.043-3.791,3.135-4.6,5.602c-3.783-0.777-3.387-7.271-0.201-8.4
		c-3.1-0.621-4.701,1.955-4.799,5c-1.102-0.633-1.93-1.535-2.602-2.6c-0.658-5.283,3.148-7.758,7.602-7.199
		c5.141,0.645,6.498,6.836,10.398,4.398c-3.057-5.807-5.666-15.43-3.398-23.996c-1.68-1.654-3.645-3.023-4.201-5.801
		c-2.459,0.807-3.908,2.625-4.799,5c-2.063-2.068-3.645-4.621-4.199-8.197c-2.234,0.641-4.17,3.287-4.398,6.598
		c-1.469-1.865-2.166-4.5-2.002-7.998c-2.152,1.711-2.729,5.002-6.398,5.199c2.553-5.414-3.729-8.361-2.801-14.998
		c0.414-2.945,2.684-3.879,4.4-5.602c1.207-1.209,2.336-3.666,2.6-6.398c0.453-4.688,0.559-10.213-1.199-12.996
		c-5.297-8.389-20.236-9.896-18.598-25.799c-2.09,1.109-4.328,3.807-5.398,6.6c-1.432-2.234-1.619-5.711-1.6-9.398
		c-2.266,1.068-3.756,4.645-4.2,8.199c-2.166-1.699-2.835-4.896-3.6-7.998c-1.509,2.24-1.952,6.33-1.4,9.996
		c-2.059-0.738-3.689-1.906-4-4.396c-1.696,1.236-1.713,4.152-4.399,4.396c1.591-3.316,0.1-7.307-1.4-9.797
		c-8.94,0.717-16.895-1.219-23.597-3.398c-2.795,3.6-9.694,1.604-10.999-2c2.707-0.588,6.638,0.123,6.799-2.4
		c0.094-1.475-1.653-2.225-3.4-2c-2.031,0.262-3.029,2.127-5.199,3c-1.841,0.742-4.907,1.037-7.399-0.799
		c-2.796-2.064-2.045-4.826-5.599-5.801c1.394-1.473,3.192-2.539,6.399-2.199c2.237,0.963,3.779,2.621,5.6,4
		c-1.166-4.064-5.212-7.28-10.399-6C192.764,250.949,201.647,251.967,203.506,255.599"/>
</g>
</svg>
