<?xml version="1.0" encoding="iso-8859-1"?>
<!-- Generator: Adobe Illustrator 14.0.0, SVG Export Plug-In . SVG Version: 6.00 Build 43363)  -->
<!DOCTYPE svg PUBLIC "-//W3C//DTD SVG 1.1//EN" "http://www.w3.org/Graphics/SVG/1.1/DTD/svg11.dtd">
<svg version="1.1" id="Layer_1" xmlns="http://www.w3.org/2000/svg" xmlns:xlink="http://www.w3.org/1999/xlink" x="0px" y="0px"
	 width="512px" height="512px" viewBox="0 0 512 512" style="enable-background:new 0 0 512 512;" xml:space="preserve">
<style type="text/css">
<![CDATA[
	.st0{fill:none;stroke:#000000;stroke-linecap:round;}
	.st1{enable-background:new    ;}
	.st2{fill:none;stroke:#000000;}
]]>
</style>
<g>
	<g>
		<path class="st0" d="M60.674,231.5v-204h390.638l0.014,204 M60.674,231.5c6.333,145.667,122.008,228,196,253 M451.324,231.5
			c-6.334,145.667-120.658,228-194.65,253"/>
		<line class="st2" x1="256.674" y1="27.5" x2="256.674" y2="484.5"/>
	</g>
	<g>
		<rect x="314.4" y="190.701" class="st2" width="88.201" height="79.8"/>
		<g>
			<line class="st2" x1="334.234" y1="156.401" x2="334.234" y2="180.668"/>
			<line class="st2" x1="351.734" y1="156.401" x2="351.734" y2="180.668"/>
			<line class="st2" x1="368.301" y1="156.401" x2="368.301" y2="180.668"/>
			<line class="st2" x1="384.664" y1="156.401" x2="384.664" y2="180.668"/>
		</g>
		<g>
			<line class="st2" x1="336.918" y1="279.834" x2="336.918" y2="304.102"/>
			<line class="st2" x1="354.418" y1="279.834" x2="354.418" y2="304.102"/>
			<line class="st2" x1="370.984" y1="279.834" x2="370.984" y2="304.102"/>
			<line class="st2" x1="387.348" y1="279.834" x2="387.348" y2="304.102"/>
		</g>
		<g>
			<line class="st2" x1="278.898" y1="253.604" x2="303.164" y2="253.74"/>
			<line class="st2" x1="278.996" y1="236.104" x2="303.264" y2="236.241"/>
			<line class="st2" x1="279.092" y1="219.538" x2="303.357" y2="219.676"/>
			<line class="st2" x1="279.184" y1="203.175" x2="303.449" y2="203.313"/>
		</g>
		<g>
			<line class="st2" x1="413.643" y1="251.67" x2="437.91" y2="251.807"/>
			<line class="st2" x1="413.742" y1="234.169" x2="438.008" y2="234.306"/>
			<line class="st2" x1="413.836" y1="217.603" x2="438.102" y2="217.74"/>
			<line class="st2" x1="413.93" y1="201.242" x2="438.195" y2="201.378"/>
		</g>
		<g class="st1">
			<path d="M346.289,206.816h-0.045l-2.531,1.366l-0.381-1.501l3.181-1.702h1.681v14.56h-1.904V206.816z"/>
		</g>
		<g class="st1">
			<path d="M373.588,240.882h-0.044l-2.531,1.366l-0.381-1.501l3.181-1.702h1.68v14.56h-1.904V240.882z"/>
		</g>
		<g class="st1">
			<path d="M379.01,212.24c0,4.95-1.859,7.683-5.063,7.683c-2.846,0-4.794-2.665-4.838-7.481c0-4.905,2.127-7.571,5.084-7.571
				C377.24,204.87,379.01,207.604,379.01,212.24z M371.102,212.464c0,3.786,1.166,5.937,2.957,5.937
				c1.994,0,2.957-2.353,2.957-6.071c0-3.584-0.896-5.936-2.957-5.936C372.356,206.394,371.102,208.499,371.102,212.464z"/>
		</g>
		<g class="st1">
			<path d="M351.709,246.168c0,4.95-1.858,7.683-5.063,7.683c-2.844,0-4.793-2.665-4.838-7.481c0-4.905,2.129-7.571,5.085-7.571
				C349.939,238.798,351.709,241.531,351.709,246.168z M343.803,246.392c0,3.786,1.164,5.937,2.957,5.937
				c1.993,0,2.956-2.353,2.956-6.071c0-3.584-0.896-5.936-2.956-5.936C345.057,240.321,343.803,242.427,343.803,246.392z"/>
		</g>
	</g>
	<g>
		<path class="st2" d="M109.458,101.62c1.453-1.793,0.741-5.66-0.8-6.799c-1.123,1.592-1.513,4.488-0.8,6.799
			c-6.016-1.354-2.091-10.522,1.2-11.999C112.507,91.109,115.684,100.828,109.458,101.62"/>
		<path class="st2" d="M80.663,111.619c0.825-1.397,1.099-5.188-0.2-6.999c-1.669,1.181-2.154,5.067-0.799,6.999
			c-5.607-1.123-3.579-11.381,1-11.999C83.106,102.305,86.897,110.378,80.663,111.619"/>
		<path class="st2" d="M138.456,111.619c0.535-1.686,0.619-5.583-0.8-6.999c-1.186,1.171-1.657,4.653-0.8,6.599
			c-5.436-0.706-2.457-9.587,0.4-11.599C140.681,101.406,144.586,109.318,138.456,111.619"/>
		<path class="st2" d="M111.458,103.818c0,5.399,0,10.799,0,16.198c-1.667,0-3.333,0-5,0c0-5.399,0-10.799,0-16.198
			C108.125,103.818,109.792,103.818,111.458,103.818"/>
		<path class="st2" d="M82.461,113.617c0,3.533,0,7.066,0,10.599c-1.6,0-3.2,0-4.799,0c0-3.533,0-7.065,0-10.599
			C79.262,113.617,80.862,113.617,82.461,113.617"/>
		<path class="st2" d="M139.654,113.617c0,3.533,0,7.066,0,10.599c-1.4,0-2.8,0-4.199,0c0-3.533,0-7.065,0-10.599
			C136.855,113.617,138.254,113.617,139.654,113.617"/>
		<path class="st2" d="M105.06,121.616c2.001-0.466,4.865-0.067,7.199-0.2c-1.625,10.014,3.614,17.54,2,28.196
			c-3.533,0-7.065,0-10.599,0C102.113,139.346,107.286,131.27,105.06,121.616"/>
		<path class="st2" d="M83.261,125.616c-1.306,9.255,2.983,14.602,2.2,23.997c-3.6,0-7.199,0-10.798,0
			c-0.786-9.404,3.488-14.75,2.2-23.997C78.996,125.616,81.128,125.616,83.261,125.616"/>
		<path class="st2" d="M134.655,125.616c2.133,0,4.266,0,6.399,0c-1.293,9.243,2.977,14.608,2.2,23.997c-3.6,0-7.199,0-10.799,0
			C131.723,140.27,135.96,134.871,134.655,125.616"/>
		<path class="st2" d="M182.049,168.412c2.758-0.642,3.339-3.46,5.4-4.8c1.33,0.601,1.9,1.965,1.8,4
			c1.212-0.454,1.463-1.87,1.8-3.199c3.768,2.231,6.854,5.143,12.597,5.399c0.191,0.66-1.088,1.747-1.8,2
			c-2.9,1.028-7.626-0.878-8.998-3c-0.379,1.822-0.896,3.502-1.4,5.2c-2.6-0.798-4.196-2.601-4.998-5.2
			c-1.833,1.234-1.26,4.874-1.999,7.199c-1.55-0.467-3.017-2.703-4.4-4c-1.268,2.132-2.352,4.447-2.8,7.399
			c-0.925,0.143-1.677-1.487-2.8-1.8c-2.218,2.047-3.978,4.553-3.8,8.999c-1.281-0.485-2.649-1.77-4.6-1.8
			c-3.334-0.052-5.34,3.358-8.909,2.681c-4.032-0.766-4.603-4.945-3.489-8.281c3.032,1.313,8.591,4.36,12.598,2.2
			c2.276-1.227,3.418-4.473,2.601-7.199c-1.428-4.749-8.355-7.059-14.599-4.999c-1.022-4.32-7.937-8.67-2.799-12.599
			c3.294-1.022,6.326-1.528,10.397-2c5.205-0.603,9.65-4.952,14.6-1.6c4.646-3.236,13.699-2.606,12.799,4.6
			c-0.165,1.314-0.85,1.912-1.4,3.2C184.631,162.06,183.63,165.526,182.049,168.412 M177.651,154.612
			c-0.049,4.046,2.133,5.866,4.397,7.599c0.944-2.697,4.841-3.981,3.399-7.799C182.909,154.539,179.86,154.156,177.651,154.612
			 M165.051,158.813c-0.865,0.733-0.384,2.815-0.799,4c-0.659,0.94-2.025,1.173-2,2.799c3.323-2.105,11.451,1.978,11.798-2
			c-4.009-1.99-6.577-5.421-9.798-8.199C163.53,156.613,163.93,158.357,165.051,158.813"/>
		<path class="st2" d="M72.664,151.813c4.933,0,9.866,0,14.798,0c-0.051,1.415-1.096,1.837-1.8,2.6
			C81.133,153.741,73.392,156.283,72.664,151.813"/>
		<path class="st2" d="M100.859,151.813c5.399,0,10.798,0,16.198,0c-0.345,2.879-4.1,2.6-8.399,2.6
			C104.397,154.413,101.326,154.917,100.859,151.813"/>
		<path class="st2" d="M130.457,151.813c4.933,0,9.865,0,14.798,0c-0.705,4.495-8.487,1.912-12.998,2.6
			C131.551,153.65,130.507,153.229,130.457,151.813"/>
		<path class="st2" d="M81.861,156.612c0.083,1.317-0.261,3.061,0.4,3.799c7.406,0.926,16.526,0.139,24.597,0.4
			c0.464-1.003,0.069-2.864,0.2-4.2c1.2,0,2.4,0,3.6,0c0,1.4,0,2.8,0,4.2c8.135-0.131,16.795,0.263,24.597-0.2
			c0.987-0.613,0.82-2.379,0.8-4c1.2,0,2.4,0,3.6,0c1.111,5.984-3.346,7.796-8.497,7.959c-7.368,0.233-14.816-0.16-22.193-0.16
			c-6.963,0-13.92,0.165-20.879,0.204c-5.063,0.028-10.918-0.949-9.824-7.402c-0.017-0.284-0.033-0.566,0.2-0.6
			C79.595,156.612,80.729,156.612,81.861,156.612"/>
		<path class="st2" d="M179.85,156.612c1.4,0,2.801,0,4.2,0c-0.149,1.585-1.214,2.253-2.401,2.8
			C180.919,158.609,179.842,158.153,179.85,156.612"/>
		<path class="st2" d="M201.448,163.011c-3.756,4.075-9.295-0.28-13.199-1.4c1.324-1.645,3.499-2.926,6.6-2.2
			C196.665,160.996,198.5,162.561,201.448,163.011"/>
		<path class="st2" d="M166.852,161.011c1.34,0.726,2.205,1.927,3.799,2.4c-1.76,0.809-2.53-0.232-4.199-0.4
			C166.369,162.129,166.505,161.466,166.852,161.011"/>
		<path class="st2" d="M101.06,169.812c-0.552-1.065-0.372-2.454,0-3.6c2.751-1.854,8.079,0.021,7.599,3
			C108.239,171.813,102.851,171.258,101.06,169.812"/>
		<path class="st2" d="M148.653,203.606c-0.42,1.646-1.238,2.895-2.6,3.6c1.977,1.856,6.766,1.706,8.999,0.2
			c0.061,2.007,0.771,3.363,1.4,4.8c-8.707,1.425-16.293,3.97-23.997,6.398c1.168-2.123,3.426-4.286,2.4-7.398
			c-1.814,0.532-3.274,3.115-6.199,3.199c-0.397-0.797,1.037-1.752,1.6-2.799c0.62-1.153,1.032-2.454,1-4
			c-1.738,0.477-3.383,2.738-6.399,2.6c1.253-2.276,4.053-6.396,1.399-8.999c-1.252,1.681-1.865,4-4.199,4.6
			c1.94-5.429-2.431-7.41-2.8-11.799c2.533,0,5.066,0,7.599,0c0.366-2.167,0.469-4.597,0.8-6.799
			c-5.233-1.086-11.763,0.766-13.198-4.199c-0.801-2.77,0.186-6.636-0.2-10.599c-1.249-0.751-2.903-1.096-4.599-1.4
			c0.536-0.878,0.415-3.249-0.2-4.6c3.973-0.909,5.565,2.055,7.599,4.6c2.337,2.924,4.352,6.092,7.599,7.999
			c3.113,1.828,6.764,3.295,8.399,6.799c1.608,3.446,1.477,7.299,3.6,9.999C139.602,199.554,144.393,202.06,148.653,203.606"/>
		<path class="st2" d="M102.459,172.21c2.396-0.593,6.324,0.656,6.199,3.2c-0.178,3.63-8.156,3.151-8.599-0.4
			C99.798,172.918,100.953,172.583,102.459,172.21"/>
		<path class="st2" d="M193.848,172.01c0.7-0.034,0.629,0.704,1,1c7.868,2.265,7.87,12.394,13.197,17.198
			c-2.746,0.954-6.396,0.047-8.396-1c0.681-4.788-0.541-8.935-3.602-10.599c1.055,3.775,2.635,8.956,0.2,12.398
			c-2.334-0.932-3.687-2.845-4.397-5.399c-1.603,4.093,3.936,7.044,0.799,10.999c-1.672-2.794-4.369-4.563-7.799-5.599
			c1.09,2.697,2.141,7.398,0.6,10.398c-2.437-1.496-4.771-3.095-8.399-3.399c0.771,2.816,1.136,6.518,0,9.199
			c-1.649-1.148-3.427-2.17-6.397-2c0.727-3.485,5.468-6.037,2.8-10.399c2.276,0.016,5.417-0.133,8.198-0.2
			c-0.056-2.238-1.31-5.537-0.6-8.599c2.564,0.395,3.756,3.138,6.998,2.199c-0.255-1.853,0.451-4.302,0.801-6.199
			c1.885,0.367,3.555,2.449,5.6,1.4c-2.12-1.812-4.188-3.676-6.199-5.6c-0.688,2.977-2.536,4.796-2.801,8.199
			c-1.064-0.114-1.372-0.892-2.199-1.6c-0.331-0.284-1.855-1.808-1.998-1.8c-1.307,0.081-3.508,6.682-3,9.799
			c-2.877,0.596-6.074-0.182-8.6-0.6c2.543,4.16-0.909,9.626-1.199,14.598c-2.518-3.16-0.529-9.151-1.399-13.398
			c-1.995,2.405-5.448,5.084-9,6.599c-0.92-6.586,0.948-12.117,7.399-11.999c-1.426,1.189-3.182,3.444-2,5.999
			c1.688-2.112,3.531-4.068,5.999-5.399c0.896,0.838,2.776,0.69,3.801,1.4c-0.854-2.673-1.128-7.773,1.198-8.999
			c1.254,0.946,1.658,2.741,1.801,4.799c1.195-3.135,2.129-6.535,3.999-8.999c1.405,0.86,2.416,2.118,2.8,3.999
			c1.762-1.971,2.76-4.707,3-8.199c1.467,1.934,3.258,3.541,5.398,4.799C192.696,175.792,193.585,174.214,193.848,172.01"/>
		<path class="st2" d="M108.858,172.811c1.392,0.141,2.491,0.575,4,0.6c0,3.533,0,7.066,0,10.599c-1.133,0-2.267,0-3.4,0
			c1.981-2.056,0.098-4.462-1.4-5.799C110.534,177.817,110.431,174.139,108.858,172.811"/>
		<path class="st2" d="M165.651,178.409c-1.375-1.356-4.334-1.131-5.998-2.2c-6.943-0.211-10.353,6.968-17.798,5.799
			c-3.199-0.502-5.197-3.182-4.399-7.399c0.575-0.46,1.483,1.19,2.2,1.6c7.648,4.371,13.494-5.254,21.998-2.4
			C163.44,174.412,164.917,175.792,165.651,178.409"/>
		<path class="st2" d="M103.859,178.609c2.051-0.207,4.866,0.751,4.799,3.199c-0.104,3.867-7.522,2.95-7.999-0.2
			C100.352,179.574,101.41,178.856,103.859,178.609"/>
		<path class="st2" d="M115.059,189.008c3,0,5.999,0,8.999,0c0,1.2,0,2.4,0,3.6c-10.532,0-21.064,0-31.596,0c0-1.2,0-2.4,0-3.6
			c2.733,0,5.466,0,8.199,0c0.423-1.088,0.575-3.101,2.6-3.6c2.379-0.586,8.473-0.486,9.999,0.2
			C114.587,186.207,114.718,187.891,115.059,189.008"/>
		<path class="st2" d="M156.252,192.608c-0.045,2.578,0.637,6.591-0.4,8.999c4.313,0.313,7.921-1.812,9.599-4.799
			c0.51,2.928-0.438,5.281,0.199,7.799c0.52,2.05,2.539,3.799,2.199,6.199c-2.604-1.661-4.588-3.945-6.199-6.599
			c-0.789,2.609-1.029,5.768-2.799,7.399c-1.313-2.154-0.624-6.309-2.8-7.599c-1.19,1.676-2.506,3.227-5.799,2.8
			c0.758-2.242,2.21-3.79,2-6.999c-4.355,2.368-8.799-2.223-6.399-6.599C147.666,196.597,154.823,195.681,156.252,192.608"/>
		<path class="st2" d="M202.447,204.006c-3.462-0.205-5.351-1.981-7.601-3.4c0.418,3.522,5.653,4.78,4.2,10.199
			c-2.571-1.562-4.11-4.154-7.601-4.8c0.852,1.423,0.279,9.006-1.6,9.199c-0.751,0.077-1.746-2.186-2.199-2.8
			c-1.111-1.506-2.601-2.797-4.199-3.399c-0.463,3.669-2.139,6.127-3.399,9c-1.306-1.961-3.284-3.248-4.998-4.8
			c-0.793,1.942-1.36,4.106-2.801,5.399c-1.024-1.641-2.292-3.041-3.599-4.398c1.656-1.167,2.66-4.483,1.398-6.8
			c3.957-0.025,6.176,1.692,8.398,3.4c1.063-2.575,2.105-6.108,1.4-9.799c2.644,0.824,4.479,2.452,6.198,4.2
			c1.843-2.119,2.784-6.381,1.601-9.799c2.396,0.802,3.811,2.588,4.799,4.799c1.018-2.649,1.598-5.735,4.199-6.799
			C199.192,196.329,199.745,201.242,202.447,204.006"/>
		<path class="st2" d="M161.452,208.805c2.041,1.559,3.75,3.451,6.199,4.6c-2.006-0.062-4.262-1.603-7.399-1.2
			C160.905,211.324,161.397,210.283,161.452,208.805"/>
		<path class="st2" d="M206.447,211.005c0.456,1.9,2.902,3.585,3,5.6c0.108,2.279-2.203,3.546-4.001,4.798
			C206.065,219.021,205.48,213.707,206.447,211.005"/>
		<path class="st2" d="M156.853,305.793c-2.717,0.416-4.887,1.379-5.799,3.602c-1.851-4.1,1.897-5.934,2.6-8.799
			c-1.525,0.607-3.845,2.152-7,1.801c0.888-2.047,2.4-3.469,3.4-5.4c-1.867-0.465-4.66-0.129-6,0.6c0.33-3.604,4.667-4.93,7.199-7
			c-2.873,0.371-6.608,0.707-9.399,0c6.074-1.496,5.164-9.723,8.799-13.998c1.543-1.813,4.706-2.781,7.399-3.799
			c8.49-3.205,15.23-5.734,20.396-12.598c3.253,1.615,7.101,2.633,7,7.6c-1.67-0.934-2.664-2.535-5.199-2.602
			c1.061,4.664-3.113,12.602,0.801,16.799c-1.591,1.408-2.611,3.387-2.8,6.199c-3.226-0.107-5.228-1.439-7.399-2.602
			c1.088,2.912,3.119,4.881,6,6c-2.314,1.496-6.781,0.746-8.199-1c0.791,2.275,2.213,3.918,4.601,4.6
			c-1.815,2.193-3.528,3.389-3.801,5.799c-0.474,4.215,3.803,8.557,3.198,13.4c-0.25,2.018-1.64,4.002-0.799,6.398
			c-1.945-0.188-3.109-1.156-3.8-2.6c-1.339,2.076-0.737,6.328-0.2,8.799c-1.873-0.395-3.313-1.219-4.199-2.602
			c-0.984,0.906-0.588,3.359-0.199,4.602c-1.631-0.504-2.797-1.471-3.999-2.402c0.979,3.826,0.665,9.129-1.001,12
			c-6.867,0.463-14.114,0.549-16.597,5.4c-4.577-1.113-2.849-6.982,1-7.602c-3.338-0.805-5.361,1.439-6.799,3.201
			c-4.261-0.957-2.25-6.818,1-7.398c-2.387-1.08-5.22,0.748-5.199,3.396c-4.599-2.592-2.02-9.443,3.2-9.598
			c3.959-0.115,6.897,2.766,9.199,3.199c6.538,1.232,5.146-3.842,5.999-8.998c0.943-5.699,5.483-7.277,9.6-9.998
			c-1.622-1.082-3.978,0.188-5.399,0.598C154.228,308.102,155.713,307.121,156.853,305.793"/>
		<path class="st2" d="M182.049,267.998c1.489,0.777,3.031,1.502,4,2.801c0.207,4.34-0.955,7.311-2.602,9.799
			C180.204,278.207,182.083,272.588,182.049,267.998"/>
		<path class="st2" d="M104.459,216.404c-0.053-4.108-3.688-5.378-7.799-4.799c1.085-5.147,6.955-5.064,10.398-1.8
			c2.324,2.202,3.526,4.867,6,6.799c4.52,3.529,10.78,4.659,18.998,4.2c9.534-0.533,17.852-4.757,27.596-5.2
			c6.507-0.296,10.781,0.575,10.398,7.797c2.416-0.383,4.643-2.688,5.398-5.397c1.728,1.271,2.535,3.464,3.6,5.397
			c2.584-2.816,4.803-5.996,5.801-10.397c1.533,1.666,3.201,3.197,4,5.599c2.848-1.817,4.604-4.727,4.998-8.998
			c2.508,1.814,4.532,4.209,4.2,8.798c-0.146,1.976-0.905,4.781-1,7.199c-0.376,9.566,4.096,17.543,9.998,24.598
			c2.722,3.252,5.387,6.566,7,10.199c2.409,5.426,3.897,13.557,9.798,15.197c6.407,1.781,10.646-2.527,11.198-7.398
			c0.789-6.945-1.707-15.006-3.599-19.799c-2.655-6.722-6.581-11.508-5.801-20.598c0.438-5.076,3.373-8.888,5.999-12.798
			c3.626-5.399,10.302-17.499,2.802-23.397c-2.761-2.169-7.351-2.335-10.4,0.4c-1.943,3.317-0.397,8.844,3.801,8.999
			c-3.051,4.417-9.168,0.868-8.999-3.799c-2.715,6.081,3.411,7.02,6.199,10.798c1.843,2.5,2.536,7.917-0.801,9.799
			c0.35-5.281-2.537-7.328-4.999-9.799c1.271,2.449,3.872,8.142,1.001,11.398c0.478-2.85-1.596-3.833-3.4-5.798
			c-3.579-3.899-6.69-11.391-3.399-18.398c-2.139,2.419-3.891,6.153-3.199,10.399c0.695,4.266,6.479,9.559,6.199,14.797
			c-0.139,2.586-1.698,5.412-4.801,5.998c4.414-9.641-6.543-14.503-5.998-24.596c0.536-9.938,10.737-17.696,21.996-16.798
			c7.368,0.588,13.584,5.633,13.6,13.798c0.02,10.942-7.884,16.493-9.798,25.598c1.758-2.041,5.409-3.922,6.798-7
			c1.795,4.816-1.77,8.871-4.198,11.399c1.683-0.651,3.699-0.967,4.8-2.2c0.169,4.702-4.238,6.562-6,10
			c1.705,0.168,3.957-1.906,4.8-2.602c0.498,5.438-3.927,7.001-2.801,12.398c0.792-0.347,2.195-2.867,3.8-2.399
			c0.358,1.062-0.557,1.918-0.8,2.799c-1.701,6.167,0.958,14.814,0.399,21.798c-0.527,6.625-4.908,12.531-12.599,11.998
			c-3.335-0.23-8.179-2.307-10.799-4.398c-0.93-0.744-2.969-2.688-3.2-3.998c-0.473-2.682,1.678-6.039,0.2-9
			c-0.525,3.662-3.528,7.293-3.599,11.396c-0.059,3.389,1.659,5.914,2.6,9c-2.83,0.85-4.965-0.6-6.198-2
			c-0.771,13.813,23.139,7.984,17.598,22.797c0.968,0.484,2.228,0.631,3.398,0.4c-0.545,2.188-2.598,2.867-3.999,4.199
			c0.761,1.973,2.816,2.65,5.6,2.6c-0.713,2.145-4.932,2.492-7.398,1.602c2.094,2.174,4.601,3.932,5.199,7.6
			c-1.646-0.688-2.996-1.67-5.4-1.6c2.521,1.678,4.617,3.781,5.4,7.197c-0.886-0.715-2.233-0.967-3.398-1.4
			c0.77,3.199,1.078,7.576,0.6,11.398c-3.924,3.494-9.661,6.182-16.998,5.6c-0.555-2.631,0.085-5.41,1.8-6.398
			c-3.655-1.043-3.79,3.135-4.6,5.602c-3.783-0.777-3.386-7.271-0.2-8.4c-3.1-0.621-4.701,1.955-4.799,5
			c-1.102-0.633-1.93-1.535-2.602-2.6c-0.658-5.283,3.148-7.758,7.601-7.199c5.142,0.645,6.499,6.836,10.398,4.398
			c-3.057-5.807-5.666-15.43-3.398-23.996c-1.68-1.654-3.645-3.023-4.2-5.801c-2.46,0.807-3.908,2.625-4.799,5
			c-2.063-2.068-3.646-4.621-4.2-8.197c-2.233,0.641-4.169,3.287-4.397,6.598c-1.469-1.865-2.166-4.5-2.002-7.998
			c-2.152,1.711-2.729,5.002-6.398,5.199c2.553-5.414-3.729-8.361-2.801-14.998c0.414-2.945,2.684-3.879,4.399-5.602
			c1.208-1.209,2.337-3.666,2.601-6.398c0.453-4.688,0.559-10.213-1.199-12.996c-5.297-8.389-20.237-9.896-18.598-25.799
			c-2.091,1.109-4.328,3.807-5.398,6.601c-1.432-2.235-1.62-5.712-1.6-9.399c-2.267,1.069-3.756,4.645-4.201,8.2
			c-2.166-1.7-2.835-4.897-3.6-7.999c-1.509,2.24-1.952,6.33-1.4,9.997c-2.059-0.739-3.689-1.907-4-4.397
			c-1.696,1.236-1.713,4.152-4.399,4.397c1.591-3.317,0.1-7.307-1.4-9.797c-8.94,0.716-16.895-1.22-23.597-3.399
			c-2.795,3.601-9.694,1.604-10.999-2c2.707-0.588,6.638,0.123,6.799-2.399c0.094-1.476-1.653-2.226-3.4-2
			c-2.031,0.262-3.029,2.127-5.199,2.999c-1.841,0.742-4.907,1.038-7.399-0.799c-2.796-2.063-2.045-4.825-5.599-5.801
			c1.394-1.473,3.192-2.539,6.399-2.199c2.237,0.963,3.779,2.621,5.6,4c-1.166-4.063-5.212-7.28-10.399-6
			C93.717,211.754,102.601,212.772,104.459,216.404"/>
	</g>
</g>
</svg>
